<svg width="18" height="16" viewBox="0 0 18 16" fill="none" xmlns="http://www.w3.org/2000/svg">
<path d="M16.0427 7.04046L9.49285 7.05928V0.959364C9.49285 0.427866 9.04247 0 8.48299 0C7.9237 0 7.47314 0.427866 7.47314 0.959364L7.49294 7.04064H1.22031C0.660835 7.04064 0.210449 7.4685 0.210449 8C0.210449 8.53133 0.660835 8.95919 1.22031 8.95919H7.48304V15.0406C7.48304 15.5718 7.93342 16 8.4929 16C9.05237 16 9.50275 15.5718 9.50275 15.0406V8.95936H16.0427C16.6022 8.95936 17.0526 8.53116 17.0526 8C17.0526 7.46833 16.5971 7.04046 16.0427 7.04046Z" fill="white"/>
</svg>
